<svg xmlns="http://www.w3.org/2000/svg" aria-hidden="true"
     viewBox="0 0 22 22"
     class="flex h-10 w-10 items-center justify-center rounded-lg ring-8 ring-gunmetal bg-white"><!--!-->
  <g id="signet" fill="#fff" fill-rule="evenodd" transform="translate(-14.374746,-117.65994)">
    <path
      d="m 19.121128,138.55999 c -0.368587,-0.15752 -1.74579,-1.41965 -1.946173,-1.78354 -0.08141,-0.14786 -0.169952,-0.37844 -0.196755,-0.51243 -0.04719,-0.23572 -0.06071,-0.24464 -0.419276,-0.27584 -0.885985,-0.0771 -1.702704,-0.96773 -1.703757,-1.85789 -5.59e-4,-0.69691 0.234561,-1.01922 1.846485,-2.52844 1.986216,-1.85968 2.011461,-1.88713 2.011461,-2.18673 0,-0.30119 0.114529,-0.18121 -2.485167,-2.60349 -1.420956,-1.32398 -1.49428,-1.44849 -1.431504,-2.43093 0.04006,-0.62645 0.08484,-0.69919 0.961812,-1.56132 0.661141,-0.64996 1.131264,-0.94584 1.638095,-1.03096 0.223294,-0.0375 0.278191,-0.0764 0.278191,-0.19723 0,-0.23754 0.151871,-0.58413 0.383928,-0.87618 0.353575,-0.44497 1.45476,-1.42243 1.750433,-1.55374 0.410929,-0.18252 1.292711,-0.17237 1.695546,0.0195 0.267958,0.12762 2.440892,2.05669 3.079092,2.73353 0.273012,0.28953 0.325078,0.29908 0.451406,0.0827 0.09165,-0.157 1.580274,-1.59809 2.980931,-2.88573 0.5645,-0.51896 0.740168,-0.63926 1.072995,-0.73482 0.498417,-0.14312 0.707094,-0.14329 1.207009,-8.5e-4 0.342801,0.0976 0.510116,0.21638 1.206672,0.85684 0.797436,0.73321 1.154796,1.21736 1.156463,1.56679 6.79e-4,0.11097 0.04514,0.15195 0.167635,0.15399 0.303862,0.005 0.863472,0.22889 1.185175,0.47397 0.601435,0.45816 0.850456,1.22257 0.647694,1.98821 -0.106643,0.4027 -0.296477,0.61358 -1.894812,2.10482 -1.66119,1.54987 -1.877859,1.78579 -1.882474,2.04967 -0.0039,0.24169 0.26549,0.54248 1.576574,1.75811 2.443547,2.26565 2.388673,2.19489 2.388454,3.08049 -2.2e-4,0.77591 -0.08811,0.92537 -1.088299,1.85003 -0.782648,0.72356 -0.893505,0.79547 -1.465315,0.95048 -0.31442,0.0852 -0.332763,0.10451 -0.414085,0.4346 -0.114285,0.46388 -0.25145,0.64378 -1.073879,1.40853 -0.842302,0.78321 -1.275231,0.9973 -1.930402,0.95456 -0.724748,-0.0473 -0.965581,-0.20853 -2.591385,-1.73526 -0.825863,-0.77552 -1.529579,-1.41005 -1.563811,-1.41005 -0.03424,0 -0.08144,0.053 -0.104891,0.1176 -0.04607,0.12723 -0.213301,0.29238 -2.185863,2.15952 -1.493631,1.4138 -1.721254,1.55333 -2.529268,1.55032 -0.314726,-0.001 -0.585255,-0.0458 -0.778935,-0.12861 z m 2.657405,-2.5042 c 0.849547,-0.78641 1.60888,-1.52056 1.687406,-1.63144 0.289904,-0.40936 0.174373,-0.65489 -0.687757,-1.46166 -0.530919,-0.49683 -0.571827,-0.52081 -0.888326,-0.52081 -0.326198,0 -0.346028,0.0133 -1.179334,0.79194 -2.665719,2.49084 -2.595013,2.41078 -2.483775,2.81226 0.05132,0.18522 1.08307,1.22819 1.339488,1.35406 0.0816,0.04 0.265208,0.0757 0.408013,0.0791 0.243137,0.006 0.357861,-0.0846 1.804285,-1.42351 z m 7.580012,0.6347 c 0.04082,-0.0277 0.349587,-0.3108 0.686206,-0.62918 0.592199,-0.56015 0.612014,-0.58931 0.612014,-0.90033 0,-0.31956 -0.0047,-0.32616 -0.87329,-1.13386 -2.695241,-2.50738 -3.596838,-3.37431 -3.665272,-3.52438 -0.09881,-0.21663 -0.05813,-0.40558 0.131202,-0.60942 0.146841,-0.15807 0.252954,-0.20676 0.450732,-0.20676 0.294034,0 0.101561,-0.1641 3.051418,2.60167 1.90612,1.78717 2.026751,1.87011 2.439178,1.6769 0.202543,-0.0948 1.082027,-0.89711 1.317792,-1.20202 0.233922,-0.30255 0.136011,-0.62554 -0.319468,-1.05383 -0.107516,-0.10111 -0.846452,-0.79609 -1.642079,-1.5444 -0.795625,-0.74831 -1.545071,-1.51538 -1.665436,-1.70459 -0.193266,-0.30382 -0.21884,-0.40788 -0.21884,-0.89061 0,-0.48274 0.02554,-0.5868 0.21884,-0.89062 0.120365,-0.18921 0.869811,-0.95479 1.665436,-1.7013 1.8616,-1.74667 1.779445,-1.66437 1.865101,-1.86847 0.224958,-0.53599 -0.370923,-1.07214 -0.943702,-0.84912 -0.119159,0.0464 -0.59828,0.4435 -1.064714,0.88246 -2.792713,2.62821 -2.815866,2.64487 -3.677167,2.64487 -0.777386,0 -1.009067,-0.14724 -2.596447,-1.65009 -0.775229,-0.73394 -1.846995,-1.74374 -2.381705,-2.24401 -0.534711,-0.50027 -1.142704,-1.07107 -1.351099,-1.26845 -0.296244,-0.28059 -0.441134,-0.36643 -0.664197,-0.39354 -0.251222,-0.0305 -0.324647,-0.004 -0.614779,0.22447 -0.181214,0.14252 -0.52143,0.44731 -0.756042,0.67731 -0.374409,0.36707 -0.42656,0.45177 -0.42656,0.69285 0,0.31952 -0.179922,0.12984 2.689177,2.83513 1.768625,1.66765 1.91024,1.81895 1.91024,2.0408 0,0.17734 -0.05861,0.29273 -0.225523,0.44393 -0.451044,0.40859 -0.391716,0.4526 -4.019246,-2.98162 -0.611927,-0.57933 -1.208474,-1.08929 -1.325659,-1.13326 -0.358899,-0.13467 -0.586375,-0.0258 -1.262326,0.60402 -0.684391,0.63773 -0.803766,0.86386 -0.640125,1.21262 0.05037,0.10732 0.866227,0.92102 1.813052,1.80821 0.946821,0.88721 1.797678,1.74306 1.890808,1.90187 0.137704,0.23489 0.169478,0.39541 0.170198,0.86001 7.59e-4,0.87165 0.0023,0.87052 -2.234285,2.95693 -1.277344,1.19162 -1.495448,1.41892 -1.533231,1.59797 -0.05387,0.25534 0.07931,0.59418 0.28052,0.7136 0.213573,0.12677 0.607576,0.13685 0.817256,0.021 0.0816,-0.0451 0.631988,-0.53547 1.223082,-1.08967 2.251223,-2.1107 2.380059,-2.21819 2.782863,-2.32174 0.836235,-0.21499 1.461914,-0.0444 2.155775,0.588 0.408303,0.3721 2.990364,2.79469 4.516371,4.23745 0.643512,0.60841 0.664737,0.62161 0.998614,0.6206 0.187624,-4.5e-4 0.374511,-0.0236 0.415317,-0.0514 z m -1.174094,-12.2717 c 0.212008,-0.16214 1.177737,-1.05353 2.494833,-2.30277 0.641678,-0.60863 0.719325,-0.70885 0.719325,-0.92846 0,-0.34159 -0.08501,-0.46141 -0.776304,-1.09417 -0.57663,-0.5278 -0.621439,-0.55443 -0.933127,-0.55443 -0.363377,0 -0.220116,-0.11756 -2.682313,2.20111 -1.295909,1.22038 -1.298196,1.24052 -0.251333,2.22453 0.289217,0.27187 0.592622,0.51943 0.674227,0.55016 0.26922,0.10139 0.541981,0.0667 0.754692,-0.0959 z"></path>
  </g>
</svg>
