<svg xmlns="http://www.w3.org/2000/svg" viewBox="0 0 205.319 48.994">
  <defs>
    <linearGradient id="linear-gradient" x1="0.918" y1="0.161" x2="0.101" y2="0.843" gradientUnits="objectBoundingBox">
      <stop offset="0" stop-color="#36bcee"/>
      <stop offset="1" stop-color="#1faf98"/>
    </linearGradient>
  </defs>
  <g transform="translate(-8.997 -9.004)">
    <path id="signet"
          d="M44.926,9.884a7.686,7.686,0,0,1,5.967,3.091,23.1,23.1,0,0,1,3.927,7.872c2.147,6.714,3.556,16.715,4.186,29.724.183,3.761-.269,6-1.464,7.252a3.324,3.324,0,0,1-2.461,1.055c-3.594,0-7.926-5.362-15.907-15.639-3.1-3.987-6.282-8.089-9.387-11.639-2.619,4.368-5.287,8.669-7.648,11.936a34.588,34.588,0,0,1-3.924,4.7c-1.572,1.5-2.924,2.2-4.254,2.2a3.455,3.455,0,0,1-2.618-1.191c-1.056-1.17-1.626-3.178-1.793-6.318a78.89,78.89,0,0,1,.536-11.721c.427-4.146,1.232-7.178,2.461-9.269a6.3,6.3,0,0,1,5.58-3.509c1.923,0,4.024.843,6.423,2.576a37.981,37.981,0,0,1,4.532,3.959l.585-.99C35.268,14.493,40.259,9.884,44.926,9.884Zm9.845,44.874a12.294,12.294,0,0,0,.24-3.993c-.613-12.662-1.959-22.317-4-28.7a19.64,19.64,0,0,0-3.179-6.517,3.856,3.856,0,0,0-2.905-1.664c-1.352,0-3.045.947-4.895,2.739a45.658,45.658,0,0,0-6.919,9.383l-1.168,1.975h0l-.007.011c3.458,3.858,6.981,8.393,10.4,12.792,2.957,3.807,5.749,7.4,8.13,10.062C52.95,53.624,54.223,54.489,54.771,54.759ZM26.97,28.522c-4.836-5-7.468-6.094-8.842-6.094-2.711,0-3.709,5.756-4.062,9.187a75.645,75.645,0,0,0-.516,11.176,10,10,0,0,0,.626,3.546,6.741,6.741,0,0,0,1.538-1.245,35.237,35.237,0,0,0,3.416-4.217C21.539,37.5,24.295,33,26.97,28.522Z"
          transform="translate(-0.5 -0.88)" fill="url(#linear-gradient)"/>
    <g id="novatec" fill="#fff" transform="translate(72.443 22.195)">
      <path id="novatec_n" data-name="n"
            d="M407.684,104.214h-4.628l-9.045-14.873v14.873H389.4V81.61h4.612l9.045,14.907V81.61h4.628Z"
            transform="translate(-389.4 -81.336)"/>
      <path id="novatec_o" data-name="o" d="M670.365,98.628,675.5,81.61h5.164l-7.827,22.6h-4.839L660.2,81.61h5.115Z"
            transform="translate(-616.227 -81.336)"/>
      <path id="novatec_v" data-name="v" d="M790.946,87.2l-5.082,17.016H780.7l7.827-22.6h4.839l7.794,22.6h-5.131Z"
            transform="translate(-717.16 -81.336)"/>
      <path id="novatec_a" data-name="a" d="M918.584,85.4h-6.852v18.818h-4.66V85.4H900.3V81.61h18.284Z"
            transform="translate(-817.339 -81.336)"/>
      <path id="novatec_t" data-name="t"
            d="M1047.726,94.422h-8.9v6.057h10.457v3.735H1034.2V81.61h15.053V85.4h-10.425v5.357h8.9Z"
            transform="translate(-929.496 -81.336)"/>
      <path id="novatec_e" data-name="e"
            d="M546.1,91.859a9.433,9.433,0,0,0-1.283-5.407,4.459,4.459,0,0,0-7.21-.032,9.329,9.329,0,0,0-1.283,5.342v1.1a9.567,9.567,0,0,0,1.283,5.375,4.1,4.1,0,0,0,3.621,1.916,4.047,4.047,0,0,0,3.589-1.851A9.96,9.96,0,0,0,546.1,92.93ZM550.8,92.9a13.965,13.965,0,0,1-1.169,5.878,8.9,8.9,0,0,1-3.345,3.881A9.15,9.15,0,0,1,541.264,104a9.4,9.4,0,0,1-4.985-1.348,8.7,8.7,0,0,1-3.378-3.848,13.024,13.024,0,0,1-1.2-5.765v-1.1a13.336,13.336,0,0,1,1.2-5.878,8.874,8.874,0,0,1,3.378-3.913,9.894,9.894,0,0,1,9.97,0,8.7,8.7,0,0,1,3.378,3.913,13.859,13.859,0,0,1,1.2,5.878V92.9Z"
            transform="translate(-508.674 -80.8)"/>
      <path id="novatec_c" data-name="c"
            d="M1168.716,96.161a8.086,8.086,0,0,1-2.663,5.732,9.341,9.341,0,0,1-6.365,2.095,8.394,8.394,0,0,1-6.8-2.923,12.137,12.137,0,0,1-2.484-8.038v-1.38a13.728,13.728,0,0,1,1.137-5.732,8.3,8.3,0,0,1,3.28-3.8,9.07,9.07,0,0,1,4.953-1.315,9.19,9.19,0,0,1,6.268,2.095,8.506,8.506,0,0,1,2.744,5.878h-4.644a4.8,4.8,0,0,0-1.2-3.166,4.588,4.588,0,0,0-3.167-.991,3.934,3.934,0,0,0-3.459,1.673,9.14,9.14,0,0,0-1.169,5.2v1.689c0,2.452.357,4.238,1.1,5.375a3.85,3.85,0,0,0,3.491,1.705,4.522,4.522,0,0,0,3.2-.991,4.346,4.346,0,0,0,1.2-3.053h4.6v-.049Z"
            transform="translate(-1026.909 -80.8)"/>
    </g>
  </g>
</svg>
