<svg xmlns="http://www.w3.org/2000/svg" viewBox="0 0 500 80" preserveAspectRatio="xMidYMid meet">
  <g transform="translate(0.000000,80.000000) scale(0.100000,-0.100000)" stroke="none">
    <g id="vitagroup" fill="#fff">
      <g id="vita">
        <path d="M2 638 c3 -7 41 -113 84 -235 l79 -223 70 0 70 0 79 223 c43 122 81 228 84 235 3 10 -12 12 -69 10 l-73 -3 -46 -144 -45 -145 -39 130 c-22 71 -43 137 -48 147 -7 14 -22 17 -79 17 -53 0 -70 -3 -67 -12z"/>
        <path d="M580 745 l0 -56 68 3 67 3 3 53 3 52 -70 0 -71 0 0 -55z"/>
        <path d="M860 490 l0 -310 70 0 70 0 0 180 0 180 46 0 45 0 -3 53 -3 52 -42 3 -43 3 0 75 0 74 -70 0 -70 0 0 -310z"/>
        <path d="M1282 634 c-86 -43 -132 -121 -132 -221 1 -183 188 -297 358 -218 50 23 52 23 52 5 0 -17 7 -20 50 -20 l50 0 0 235 0 235 -50 0 c-43 0 -50 -3 -50 -20 0 -25 1 -25 -51 5 -63 35 -155 35 -227 -1z m179 -127 c124 -83 1 -266 -127 -188 -65 40 -70 126 -8 180 43 38 87 41 135 8z"/>
        <path d="M580 415 l0 -235 70 0 70 0 -2 233 -3 232 -67 3 -68 3 0 -236z"/>
      </g>
      <g id="group">
        <path d="M1945 648 c-69 -25 -123 -76 -150 -142 -21 -49 -19 -142 4 -191 65 -144 260 -191 368 -89 l35 34 -4 -56 c-5 -62 -28 -99 -79 -129 -73 -43 -195 -12 -240 62 -16 25 -28 33 -50 33 -16 0 -29 -4 -29 -8 0 -26 64 -104 107 -129 41 -24 58 -28 123 -28 109 1 179 42 215 127 12 30 15 83 15 278 l0 241 -27 -3 c-24 -3 -28 -8 -31 -39 l-3 -35 -33 31 c-53 50 -149 69 -221 43z m155 -64 c56 -28 110 -111 110 -169 0 -59 -53 -140 -112 -171 -37 -19 -116 -18 -157 4 -105 53 -135 201 -59 288 61 69 141 87 218 48z"/>
        <path d="M2535 644 c-16 -8 -38 -25 -47 -37 l-18 -22 0 33 c0 29 -3 32 -30 32 l-30 0 0 -235 0 -235 30 0 30 0 0 150 c0 158 8 198 48 233 11 10 33 22 48 26 23 6 30 14 32 39 4 37 -14 42 -63 16z"/>
        <path d="M3955 650 c-17 -5 -50 -26 -73 -46 l-42 -36 0 41 c0 37 -2 41 -25 41 l-25 0 0 -310 0 -310 25 0 25 0 0 115 0 115 45 -35 c52 -39 92 -49 175 -43 71 5 128 40 175 107 27 39 30 50 30 125 0 74 -3 87 -30 132 -43 68 -105 105 -187 110 -35 2 -77 -1 -93 -6z m168 -73 c55 -31 87 -90 87 -161 0 -61 -14 -99 -52 -132 -82 -76 -194 -72 -265 9 -58 67 -67 151 -22 224 54 87 159 112 252 60z"/>
        <path d="M2804 636 c-47 -21 -105 -77 -125 -121 -12 -25 -19 -64 -19 -103 -1 -257 335 -333 456 -102 26 50 25 153 -3 205 -27 51 -78 100 -125 119 -45 19 -142 20 -184 2z m159 -49 c18 -8 49 -32 69 -55 66 -73 62 -181 -11 -253 -117 -117 -304 -33 -304 136 0 28 7 64 16 80 44 85 147 126 230 92z"/>
        <path d="M3247 643 c-11 -11 -8 -268 4 -323 20 -94 94 -149 200 -150 76 0 136 32 169 91 24 41 25 54 28 217 l4 172 -31 0 -31 0 0 -157 c0 -131 -3 -164 -18 -192 -50 -100 -191 -106 -247 -11 -17 30 -20 56 -23 198 -4 160 -4 162 -26 162 -13 0 -26 -3 -29 -7z"/>
      </g>
    </g>
    <g id="signet" fill="#E62249">
      <path d="M4453 647 c2 -6 18 -61 36 -120 l32 -108 -32 -112 c-17 -62 -34 -118 -37 -126 -7 -18 57 -7 109 19 171 88 169 348 -4 428 -56 26 -111 36 -104 19z"/>
      <path d="M4760 651 c0 -3 15 -57 33 -120 l34 -113 -35 -120 c-18 -66 -32 -122 -29 -125 3 -3 31 3 62 12 191 55 233 313 69 425 -39 28 -134 56 -134 41z"/>
    </g>
  </g>
</svg>
